# xmcd
#
# Track frame offsets:
#	150
#	13351
#	18082
#	31458
#	45960
#	60097
#	87297
#	101577
#	117425
#	125968
#	131441
#	143160
#	152749
#	166630
#	180792
#	192699
#	205627
#	220441
#	231399
#	245351
#
# Disc length: 3546 seconds
# Revision: 1
# Processed by: cddbd v1.5.2PL0 Copyright (c) Steve Scherf et al.
# Submitted via: dBpowerAMP V12.0
#
DISCID=0c0dd814
DTITLE=BD Blues - 08 Lead Belly CD2
DYEAR=2006
DGENRE=Blues
TTITLE0=My Baby Left Me
TTITLE1=Moanin'
TTITLE2=Packin' Trunk
TTITLE3=Honey I'm All Out And Blues
TTITLE4=Four Day Worry Blues
TTITLE5=Roberta I and II
TTITLE6=Kansas City Papa
TTITLE7=In The Evenin'
TTITLE8=Bottle Up and Go
TTITLE9=Big Fat Woman Blues
TTITLE10=Four Five and Nine
TTITLE11=No Good Rider
TTITLE12=Leaving Blues
TTITLE13=T.B. Blues
TTITLE14=Follow Me Down
TTITLE15=De Kalb Blues
TTITLE16=Mistreatin' Blues
TTITLE17=Good Morning Blues
TTITLE18=Don't You Love Your Daddy?
TTITLE19=How Long Blues
EXTD=
EXTT0=
EXTT1=
EXTT2=
EXTT3=
EXTT4=
EXTT5=
EXTT6=
EXTT7=
EXTT8=
EXTT9=
EXTT10=
EXTT11=
EXTT12=
EXTT13=
EXTT14=
EXTT15=
EXTT16=
EXTT17=
EXTT18=
EXTT19=
PLAYORDER=
